<svg width="100" height="100" viewBox="0 0 100 100" fill="none" xmlns="http://www.w3.org/2000/svg">
<circle cx="50" cy="50" r="50" fill="#D9D9D9"/>
<path d="M41.2381 33.2381C41.2381 28.1886 45.3315 24.0952 50.381 24.0952C55.4304 24.0952 59.5238 28.1886 59.5238 33.2381C59.5238 38.2876 55.4304 42.381 50.381 42.381C45.3315 42.381 41.2381 38.2876 41.2381 33.2381ZM50.381 18C41.9652 18 35.1429 24.8223 35.1429 33.2381C35.1429 41.6539 41.9652 48.4762 50.381 48.4762C58.7967 48.4762 65.6191 41.6539 65.6191 33.2381C65.6191 24.8223 58.7967 18 50.381 18ZM41.2381 54.5714C32.8223 54.5714 26 61.3938 26 69.8095V78.9524C26 80.6355 27.3645 82 29.0476 82C30.7308 82 32.0952 80.6355 32.0952 78.9524V69.8095C32.0952 64.7601 36.1886 60.6667 41.2381 60.6667H59.5238C64.5733 60.6667 68.6667 64.7601 68.6667 69.8095V78.9524C68.6667 80.6355 70.0311 82 71.7143 82C73.3974 82 74.7619 80.6355 74.7619 78.9524V69.8095C74.7619 61.3938 67.9396 54.5714 59.5238 54.5714H41.2381Z" fill="white"/>
</svg>
